<svg xmlns="http://www.w3.org/2000/svg" width="128" height="128" viewBox="0 0 128 128">
  <defs>
    <linearGradient id="flameGrad" x1="50%" y1="100%" x2="50%" y2="0%">
      <stop offset="0%" stop-color="#14B8A6"/>
      <stop offset="50%" stop-color="#0D9488"/>
      <stop offset="100%" stop-color="#F59E0B"/>
    </linearGradient>
    <linearGradient id="circuitGrad" x1="0%" y1="0%" x2="100%" y2="100%">
      <stop offset="0%" stop-color="#F59E0B"/>
      <stop offset="100%" stop-color="#14B8A6"/>
    </linearGradient>
  </defs>
  <circle cx="64" cy="64" r="56" fill="none" stroke="#14B8A6" stroke-width="1.5" opacity="0.3"/>
  <circle cx="64" cy="64" r="50" fill="none" stroke="#14B8A6" stroke-width="0.75" opacity="0.15"/>
  <path d="M64 16 C52 48 40 64 40 80 C40 92.57 50.74 104 64 104 C77.26 104 88 92.57 88 80 C88 64 76 48 64 16Z" fill="url(#flameGrad)" opacity="0.9"/>
  <path d="M64 32 C56 54 48 66 48 80 C48 88.47 55.16 96 64 96 C72.84 96 80 88.47 80 80 C80 66 72 54 64 32Z" fill="#0D9488" opacity="0.6"/>
  <path d="M58 78 C58 74.69 60.69 72 64 72 C67.31 72 70 74.69 70 78 C70 80 68.4 82 64 82 C59.6 82 58 80 58 78Z" fill="#F5F5F5" opacity="0.9"/>
  <path d="M56 84 C52 88 51.5 92 56 90 C60.5 88 67.5 88 72 90 C76.5 92 76 88 72 84 C68.5 81 59.5 81 56 84Z" fill="#F5F5F5" opacity="0.9"/>
  <g stroke="url(#circuitGrad)" stroke-width="1.5" fill="none" opacity="0.8">
    <path d="M44 72 L44 68 L52 68 L52 64"/>
    <circle cx="52" cy="64" r="2" fill="#F59E0B" stroke="none"/>
    <path d="M44 72 L44 80"/>
    <circle cx="44" cy="80" r="2" fill="#14B8A6" stroke="none"/>
    <path d="M44 56 L48 56 L48 52"/>
    <circle cx="48" cy="52" r="2" fill="#F59E0B" stroke="none"/>
  </g>
  <g stroke="url(#circuitGrad)" stroke-width="1.5" fill="none" opacity="0.8">
    <path d="M84 72 L84 68 L76 68 L76 64"/>
    <circle cx="76" cy="64" r="2" fill="#F59E0B" stroke="none"/>
    <path d="M84 72 L84 80"/>
    <circle cx="84" cy="80" r="2" fill="#14B8A6" stroke="none"/>
    <path d="M84 56 L80 56 L80 52"/>
    <circle cx="80" cy="52" r="2" fill="#F59E0B" stroke="none"/>
  </g>
  <g stroke="#F59E0B" stroke-width="1.2" fill="none" opacity="0.7">
    <path d="M56 94 L56 98 L60 98"/>
    <circle cx="60" cy="98" r="1.5" fill="#F59E0B" stroke="none"/>
    <path d="M72 94 L72 98 L68 98"/>
    <circle cx="68" cy="98" r="1.5" fill="#F59E0B" stroke="none"/>
  </g>
  <rect x="56" y="104" width="16" height="10" rx="3" fill="#14B8A6" opacity="0.7"/>
  <rect x="58" y="108" width="12" height="4" rx="2" fill="#0D9488" opacity="0.5"/>
</svg>